<svg width="128" height="128" viewBox="0 0 128 128" fill="none" xmlns="http://www.w3.org/2000/svg">
<path d="M16.4 31.73C16.4 31.73 9.95001 32.24 9.09001 33.69C8.22001 35.14 8.17001 37.37 8.17001 39.82C8.17001 42.28 8.07001 47.92 8.07001 47.92L9.61001 51.23C9.61001 51.23 9.90001 93.42 9.90001 94.73C9.90001 96.03 9.90001 97.62 11.78 98.63C13.66 99.64 61.44 122.72 62.93 123.34C65.18 124.27 66.25 123.92 66.25 123.92L119.34 35.13C119.34 35.13 119.17 32.7 116.96 32.12C115.69 31.8 16.4 31.73 16.4 31.73Z" fill="#F5B03E"/>
<path d="M65.68 60.92C64.87 63.15 65.24 86.21 65.38 102.98C65.52 119.74 64.95 123.21 65.38 123.79C65.81 124.37 66.98 123.81 70.29 122.34C76.44 119.62 105.98 105 108.15 103.7C110.32 102.4 115.62 99.71 116.49 98.26C117.36 96.81 117.83 83.32 118.12 72.49C118.41 61.65 118.7 52.98 118.7 52.98L120 49.08C120 49.08 119.72 38.54 119.67 37.38C119.58 35.46 119.37 34.47 118.88 34.71C118.18 35.04 112.34 39.83 96.88 47.35C87.17 52.06 66.24 59.38 65.68 60.92Z" fill="#E07F14"/>
<path d="M65.82 11.21C61.49 11.01 49.64 17.86 38.22 21.61C26.8 25.36 9.56 32.9 9.41 33.34C9.27 33.77 16.35 36.94 20.87 39.11C26.24 41.68 46.74 51.39 50.49 52.98C54.25 54.57 63.21 58.29 64.65 58.18C66.67 58.04 85.75 50.52 95.43 45.9C105.11 41.28 117.21 34.12 117.37 32.38C117.44 31.6 99.57 24.93 90.66 20.9C73.46 13.11 68.99 11.36 65.82 11.21Z" fill="#FDD717"/>
<path d="M8.11998 49.77C8.26998 51.65 9.29998 52.32 11.92 53.46C14.54 54.6 64.07 80.33 65.21 80.33C66.35 80.33 66.69 76.25 65.44 76.36C64.76 76.42 48.49 68.69 33.29 60.97C20.39 54.43 8.03998 47.9 8.03998 47.9L8.11998 49.77Z" fill="#E37D14"/>
<path d="M120.01 48.99C120.01 48.99 67.12 75.89 66.6 76.15C66.08 76.41 65.25 76.32 65.25 76.32L65.21 80.33C65.21 80.33 65.7 80.44 66.25 80.27C66.57 80.17 118.48 53.3 118.71 53.22C118.94 53.14 119.94 52.54 120.15 51.27C120.33 50.25 120.01 48.99 120.01 48.99Z" fill="#BA5E0D"/>
<path d="M28.86 97.42L39.21 112.82L43.74 114.37C43.74 114.37 44.11 97.57 44.26 85.12C44.47 66.93 44.39 50.34 44.65 49.4C45.08 47.81 65.21 41.28 65.21 41.28C65.21 41.28 87.95 48.41 88.67 50C88.99 50.7 88.74 62.48 88.67 76.21C88.58 93.55 88.61 113.57 88.61 113.57C88.61 113.57 90.96 113.56 91.24 112.69C91.53 111.82 92.69 105.11 92.69 105.11L101.51 46.32L105.99 40.54L99.77 28.7L74.25 16.14L65.48 18.11L55.99 16.66L25.89 38.29L29.4 45.41L38.01 49.8L28.86 97.42Z" fill="#AF0F1B"/>
<path d="M91.28 49.3899C90.73 50.5999 91.05 112.95 91.05 112.95C91.05 112.95 93.8 111.43 97.34 109.73C100.86 108.04 103.39 106.99 103.61 106.11C103.83 105.23 104.22 43.5699 104.22 43.5699L91.28 49.3899Z" fill="#DC0D28"/>
<path d="M41.35 48.1C41.68 48.46 41.14 113.16 40.47 113.31C39.94 113.44 27.89 108.06 27.89 107.51C27.89 106.96 28.86 45.13 28.86 45.13C28.86 45.13 40.37 47 41.35 48.1ZM65.23 14.25C61.9 14.25 58.22 15.2 57.15 17.99C56.08 20.78 55.84 24.93 55.84 28.03C55.84 31 55.36 38.6 64.51 38.48C73.66 38.36 73.93 34.97 74.07 27.49C74.19 21.25 73.36 18.22 72.53 16.92C71.79 15.75 69.33 14.25 65.23 14.25Z" fill="#FF2A23"/>
<path d="M59.94 29.69C62.02 29.81 62.91 25.24 64.51 22.74C66.11 20.25 67.78 18.58 67.18 17.28C66.69 16.2 62.34 15.85 59.99 19.12C58.34 21.43 58.05 29.58 59.94 29.69Z" fill="#FCC9D2"/>
<path d="M73.33 16.42C73.33 16.42 76.28 19.42 77.05 25.3C77.82 31.18 76.93 35.75 76.93 35.75C76.93 35.75 91.59 35.31 96.65 36.28C101.64 37.25 103.38 39.45 103.38 41.05C103.38 42.65 100.1 43.94 96.77 43.7C93.44 43.46 91.19 43.28 90.77 44.12C90.35 44.96 90.95 46.26 95.58 46.61C100.21 46.97 105.56 46.31 107.22 40.55C108.88 34.79 108.94 24.81 108.35 17.62C107.76 10.43 106.46 6.31999 103.24 4.75999C99.85 3.12999 91.36 2.85999 83.34 7.36999C75.32 11.88 73.33 16.42 73.33 16.42Z" fill="#FF2A23"/>
<path d="M89.94 9.58002C88.9 8.24002 85.55 8.28002 83.76 10.35C81.86 12.55 81.44 20.92 83.88 21.4C86.64 21.94 86.14 17.42 88.16 14.63C90.14 11.9 90.95 10.89 89.94 9.58002Z" fill="#FCC9D2"/>
<path d="M56.38 16.71C56.38 16.71 45.15 3.62002 32.32 3.82002C24.6 3.94002 22.64 8.39002 22.22 10.23C21.8 12.07 18.6 30.37 22.87 40.28C27.14 50.19 36 47.62 37.39 47.3C39.17 46.88 42.96 45.58 42.6 44.21C42.24 42.84 29.65 47.77 29.53 42.13C29.41 36.49 38.44 35.89 42.6 35.77C46.76 35.65 53.89 36.6 53.89 36.6C53.89 36.6 52.64 29.77 53.47 24.9C54.3 20.03 56.38 16.71 56.38 16.71Z" fill="#FF2A23"/>
<path d="M28.88 8.56997C27.28 10.23 26.62 19.8 27.63 24.55C28.64 29.3 29.53 31.32 31.61 30.91C33.35 30.56 34.4 21.24 35.23 17.96C36.12 14.46 38.32 10.74 37.43 9.10997C36.07 6.60997 30.55 6.83997 28.88 8.56997Z" fill="#FCC9D2"/>
</svg>
