<svg width="128" height="128" viewBox="0 0 128 128" fill="none" xmlns="http://www.w3.org/2000/svg">
<g clip-path="url(#clip0_41_10)">
<path d="M85.15 82.83L64.99 88.73C64.99 88.73 66.99 99.86 67.75 103.85C68.51 107.84 68.89 111.36 68.51 112.6C68.13 113.84 64.52 116.31 65.18 118.69C65.85 121.07 71.46 121.64 77.35 120.88C83.25 120.12 84.29 118.03 84.39 114.89C84.49 111.75 82.3 106.05 82.58 104.53C82.87 103.01 85.24 99.59 85.53 95.88C85.82 92.17 85.15 82.83 85.15 82.83Z" fill="url(#paint0_linear_41_10)"/>
<path d="M41.31 61.3799L22.63 36.5699C22.63 36.5699 15.07 39.5699 14.64 50.3999C14.21 61.2299 17.06 67.3699 16.78 71.7899C16.49 76.2099 12.64 80.49 12.93 87.4799C13.22 94.4699 17.07 104.74 17.07 106.45C17.07 108.16 16.5 117.77 18.71 119.81C20.72 121.67 25.34 122.14 29.34 121.85C33.34 121.56 37.76 120.71 37.76 117.57C37.76 114.43 32.49 114.83 32.05 113.15C31.84 112.32 32.66 111.93 33.14 109.96C33.42 108.85 33.09 107.2 33.09 107.2C33.09 107.2 40.25 97.3099 41.74 90.3899C43.24 83.4699 39.24 76.7699 38.96 74.5599C38.68 72.3699 41.31 61.3799 41.31 61.3799Z" fill="url(#paint1_linear_41_10)"/>
<path d="M29.62 53.71C28.61 52.12 24.63 52.28 21.78 47.79C18.93 43.3 19.36 38.45 20.85 35.74C22.09 33.51 23.63 32.74 23.63 32.74L23.7 30.6C23.7 30.6 21.35 29.17 21.13 25.96C20.91 22.75 21.99 21.25 24.98 18.83C27.97 16.41 30.69 14.69 30.69 14.69C30.69 14.69 30.4 11.77 31.19 9.91C31.97 8.06 35.54 4 41.81 4C48.08 4 52.97 7.85 56.75 11.84C60.53 15.83 60.89 19.4 60.81 20.33C60.74 21.26 57.64 25.89 57.64 25.89L64.99 35.24L81.29 44.68L93.52 60.76L108.35 73.1L112.52 92.35C112.52 92.35 116.76 96.84 118.12 103.05C119.47 109.25 119.55 118.31 117.41 119.81C115.27 121.31 110.56 124.02 102.01 123.66C95.29 123.38 95.45 121.88 95.59 120.66C95.77 119.16 100.08 115.03 100.58 114.38C101.08 113.73 100.94 107.11 99.37 106.18C97.8 105.25 94.88 104.83 91.31 100.47C87.74 96.12 86.82 89.99 86.82 89.99C86.82 89.99 83.33 91.26 79.12 91.34C73.27 91.46 65 88.7 65 88.7C65 88.7 47.6 81.09 43.53 75.79C40.58 71.95 39.25 69.66 39.25 69.66C39.25 69.66 35.4 67.88 32.62 62.31C29.83 56.77 30.62 55.28 29.62 53.71Z" fill="url(#paint2_linear_41_10)"/>
<path d="M44.24 26.82C44.45 25.25 45.24 24.11 43.31 22.97C41.38 21.83 34.4 22.19 31.47 22.33C28.55 22.47 22.98 22.33 23.48 24.68C23.6 25.27 23.71 26.36 24.55 27.14C27.07 29.48 31.97 29.81 31.97 29.81L44.24 26.82Z" fill="#44494E"/>
<path d="M31.5399 27.75C32.4699 27.93 33.4699 23.47 39.5299 23.69C45.5899 23.9 46.9099 27.54 46.9099 27.54C46.9099 27.54 42.0199 34.53 40.0999 39.09C38.1699 43.65 36.3199 49.36 35.2499 49.72C34.1799 50.08 28.6399 49.6 25.0499 46.72C22.1599 44.4 21.0599 41.48 21.6299 38.09C21.9199 36.35 22.9499 35.2 23.3799 34.74C23.7199 34.37 25.5199 36.67 26.5899 36.24C27.6599 35.81 27.5199 35.13 27.1199 34.67C26.7299 34.21 24.9099 32.99 24.9099 32.99C24.9099 32.99 25.7699 31.67 27.0099 32.24C28.0699 32.72 29.1499 34.34 29.1499 34.34C29.1499 34.34 31.1099 32.28 31.9699 32.13C33.3599 31.88 34.3199 33.24 34.3199 33.24C34.3199 33.24 31.3599 34.2 30.9999 35.06C30.6399 35.92 31.2899 37.02 33.3499 36.27C35.4199 35.52 36.3099 35.09 36.3099 35.09C36.3099 35.09 36.4199 31.85 33.2799 30.99C31.0699 30.38 29.2199 32.59 29.2199 32.59C29.2199 32.59 27.8699 31.24 27.1199 31.02C26.3699 30.81 25.7299 30.95 25.7299 30.95C25.7299 30.95 24.6999 28.77 24.3399 27.74C23.9799 26.71 23.5599 25.17 23.5599 25.17C23.5599 25.17 25.7699 24.28 27.8399 25.1C29.8999 25.93 30.6199 27.57 31.5399 27.75Z" fill="#AEAEAF"/>
<path d="M36.71 27.57C35.8 28.45 35.6 30.03 36.53 30.74C37.46 31.45 38.81 31.17 39.67 30.21C40.53 29.25 40.67 27.75 39.92 27.18C39.17 26.61 37.82 26.5 36.71 27.57ZM29.01 30.21C28.12 31.01 26.91 30.25 26.48 29.68C25.86 28.85 25.66 27.58 26.02 27.08C26.38 26.58 27.66 26.37 28.55 27.19C29.44 28 29.76 29.53 29.01 30.21ZM28.55 41.08C32.01 41.19 33.36 41.04 34.29 40.97C34.7 40.94 35.57 40.4 36.61 41.01C37.65 41.62 37.4 43.22 36 43.26C34.61 43.3 34.32 43.05 34.32 43.05C34.32 43.05 32.24 43.5 28.51 43.19C25.05 42.9 23.8 42.12 23.8 42.12C23.8 42.12 22.2 42.78 21.87 41.59C21.56 40.42 22.61 39.65 23.55 40.06C24.47 40.44 25.51 40.99 28.55 41.08Z" fill="black"/>
<path d="M85.39 70.25C86.66 72.87 89.81 75.81 92.02 75.24C94.23 74.67 94.59 73.67 96.3 72.82C98.01 71.96 99.58 72.11 99.58 72.11C99.58 72.11 96.87 75.39 96.23 78.74C95.59 82.09 94.16 91.22 100.37 95.28C106.57 99.34 112.56 92.43 112.56 92.43C112.56 92.43 114.27 81.3 113.06 73.6C111.85 65.9 107.78 58.83 104.15 56.7C101.73 55.27 100.44 55.7 97.23 54.63C94.58 53.75 90.53 51.85 87.67 49.78C84.82 47.71 81.75 45.36 81.75 45.36C81.86 44.78 84.74 53.16 84.6 58.41C84.51 61.84 84.17 67.76 85.39 70.25Z" fill="url(#paint3_linear_41_10)"/>
<path d="M82.28 45.88C82.28 45.88 83.7 54.91 83.18 61.26C82.64 67.95 78.4801 72.11 78.3001 73.74C78.0001 76.44 76.49 90.38 73.6 91.11C69.59 92.11 61.3 66.87 61.3 66.87L82.28 45.88Z" fill="#44494E"/>
<path d="M55.77 28.91C55.77 28.91 57.09 28.41 58.5 27.71C59.64 27.14 60.5 25.96 60.5 25.96C60.5 25.96 66.89 24.82 73.27 30.62C79.64 36.42 83.44 43.55 81.92 54.77C80.4 65.99 75.74 72.65 75.74 72.65C75.74 72.65 76.31 81.97 74.41 88.43C72.51 94.9 64.71 108.3 64.43 111.82C64.15 115.34 68.45 116.06 69.64 119.06C70.69 121.71 68.78 123.85 62.51 123.95C56.24 124.05 49.67 124.28 49.39 121.45C48.91 116.67 52.36 115.82 52.17 110.02C51.98 104.22 47.89 98.13 47.32 89.01C46.75 79.88 48.56 77.12 48.56 77.12C48.56 77.12 47.99 64.28 49.7 55.73C51.41 47.18 57.59 40.42 57.31 36.14C57 31.86 55.77 28.91 55.77 28.91Z" fill="#5D6265"/>
<path d="M54.11 46.5C54.13 46.44 54.15 46.38 54.17 46.33C54.44 45.56 54.73 44.75 54.59 43.95C54.56 43.75 54.48 43.54 54.3 43.44C54.11 43.34 53.87 43.42 53.68 43.53C52.51 44.21 52.14 45.76 51.38 46.8C50.29 48.28 49.05 49.74 47.47 50.71C44.79 52.37 41.25 53.17 38.17 53.64C37.88 53.68 37.56 53.74 37.38 53.97C36.31 55.27 42.49 56.47 47.77 55.53C46.85 58.35 48.87 62.05 49.84 64.84C50.49 66.7 50.31 68.73 50.02 70.64C49.96 71.04 49.21 73.75 50.11 73.72C50.46 73.71 50.92 72.2 51.07 71.93C51.61 70.95 52.21 70.06 52.61 69.01C53.37 67.04 53.7 64.9 53.52 62.79C53.34 60.68 52.68 58.64 52.47 56.53C52.13 53.14 52.99 49.73 54.11 46.5Z" fill="url(#paint4_linear_41_10)"/>
<path d="M57.38 30.5599C57.74 29.6299 58.07 28.98 58.47 28.51C59.25 27.19 61.52 26.1 61.52 22.51C61.52 19.54 59.78 16.2 59.78 16.2C59.78 16.2 59 21.92 57.43 23.26C55.84 24.61 53.96 25.0699 51.92 25.1399C47.79 25.2699 50.35 28.1899 52.02 30.2199C53.83 32.4099 54.91 34.96 55.58 37.7C56.65 35.56 56.41 32.8199 57.38 30.5599Z" fill="url(#paint5_linear_41_10)"/>
<path d="M21.32 115.19C20.89 111.65 23.15 108.98 21.71 105.45C20.91 103.5 19.61 101.8 18.66 99.92C16.1 94.81 16.9 89.34 18.57 84.1C19.65 80.72 21.17 77.14 20.1 73.77C20.85 75.34 21.61 76.9 22.36 78.47C23.42 72.95 22.96 67.15 21.05 61.86C19.73 58.2 17.73 54.79 16.77 51.02C16.14 48.52 16.24 44.07 17.54 41.01C16.07 43.14 14.81 46.16 14.64 50.4C14.21 61.24 17.06 67.37 16.78 71.79C16.49 76.21 12.64 80.49 12.93 87.48C13.22 94.47 17.07 104.74 17.07 106.45C17.07 108.16 16.5 117.77 18.71 119.81C20.22 121.21 23.2 121.82 26.28 121.91C24.2 120.79 21.6 117.55 21.32 115.19Z" fill="#5D6265"/>
</g>
<defs>
<linearGradient id="paint0_linear_41_10" x1="75.295" y1="116.281" x2="75.295" y2="89.424" gradientUnits="userSpaceOnUse">
<stop stop-color="#484D51"/>
<stop offset="0.355" stop-color="#424548"/>
<stop offset="0.854" stop-color="#343434"/>
</linearGradient>
<linearGradient id="paint1_linear_41_10" x1="27.496" y1="118.193" x2="27.496" y2="54.9529" gradientUnits="userSpaceOnUse">
<stop stop-color="#484D51"/>
<stop offset="0.355" stop-color="#424548"/>
<stop offset="0.854" stop-color="#343434"/>
</linearGradient>
<linearGradient id="paint2_linear_41_10" x1="71.006" y1="-1.476" x2="70.627" y2="16.73" gradientUnits="userSpaceOnUse">
<stop offset="0.159" stop-color="#A9A9A9"/>
<stop offset="0.275" stop-color="#929394"/>
<stop offset="0.427" stop-color="#7B7E7F"/>
<stop offset="0.59" stop-color="#6A6E71"/>
<stop offset="0.77" stop-color="#606568"/>
<stop offset="1" stop-color="#5D6265"/>
</linearGradient>
<linearGradient id="paint3_linear_41_10" x1="96.739" y1="51.166" x2="101.198" y2="103.963" gradientUnits="userSpaceOnUse">
<stop offset="0.159" stop-color="#A9A9A9"/>
<stop offset="0.327" stop-color="#A2A3A3"/>
<stop offset="0.569" stop-color="#8F9192"/>
<stop offset="0.854" stop-color="#707476"/>
<stop offset="1" stop-color="#5D6265"/>
</linearGradient>
<linearGradient id="paint4_linear_41_10" x1="42.429" y1="67.629" x2="49.026" y2="51.743" gradientUnits="userSpaceOnUse">
<stop stop-color="#484D51"/>
<stop offset="0.416" stop-color="#424548"/>
<stop offset="1" stop-color="#343434"/>
</linearGradient>
<linearGradient id="paint5_linear_41_10" x1="57.461" y1="20.641" x2="51.931" y2="33.788" gradientUnits="userSpaceOnUse">
<stop stop-color="#484D51"/>
<stop offset="0.416" stop-color="#424548"/>
<stop offset="1" stop-color="#343434"/>
</linearGradient>
<clipPath id="clip0_41_10">
<rect width="128" height="128" fill="white"/>
</clipPath>
</defs>
</svg>
