<svg width="64" height="64" viewBox="0 0 64 64" fill="none" xmlns="http://www.w3.org/2000/svg">
<circle cx="32" cy="32" r="32" fill="white"/>
<path d="M32 50C41.9414 50 50 41.9414 50 32C50 31.1666 48.7508 31.028 48.3206 31.7426C47.403 33.2624 46.1517 34.5535 44.6612 35.518C43.1708 36.4826 41.4804 37.0953 39.7181 37.3098C37.9558 37.5243 36.1678 37.335 34.4895 36.7561C32.8112 36.1772 31.2866 35.224 30.0313 33.9687C28.776 32.7134 27.8228 31.1888 27.2439 29.5105C26.665 27.8322 26.4757 26.0442 26.6902 24.2819C26.9047 22.5196 27.5174 20.8292 28.482 19.3388C29.4465 17.8483 30.7376 16.597 32.2574 15.6794C32.972 15.2474 32.8334 14 32 14C22.0586 14 14 22.0586 14 32C14 41.9414 22.0586 50 32 50Z" fill="#4A044E"/>
</svg>
